{
  "accessors": [
    {
      "bufferView": 2,
      "componentType": 5126,
      "count": 1335,
      "max": [
        1.0,
        1.0,
        1.0
      ],
      "min": [
        -1.0,
        -1.0,
        -2.4641551971435547
      ],
      "type": "VEC3"
    },
    {
      "bufferView": 2,
      "byteOffset": 16020,
      "componentType": 5126,
      "count": 1335,
      "type": "VEC3"
    },
    {
      "bufferView": 3,
      "componentType": 5126,
      "count": 1335,
      "type": "VEC4"
    },
    {
      "bufferView": 1,
      "componentType": 5126,
      "count": 1335,
      "type": "VEC2"
    },
    {
      "bufferView": 0,
      "componentType": 5125,
      "count": 4506,
      "type": "SCALAR"
    },
    {
      "bufferView": 2,
      "byteOffset": 32040,
      "componentType": 5126,
      "count": 990,
      "max": [
        1.4478403329849243,
        0.9305526614189148,
        3.6484882831573486
      ],
      "min": [
        -1.4478403329849243,
        -0.9305527210235596,
        -0.025038480758666992
      ],
      "type": "VEC3"
    },
    {
      "bufferView": 2,
      "byteOffset": 43920,
      "componentType": 5126,
      "count": 990,
      "type": "VEC3"
    },
    {
      "bufferView": 3,
      "byteOffset": 21360,
      "componentType": 5126,
      "count": 990,
      "type": "VEC4"
    },
    {
      "bufferView": 1,
      "byteOffset": 10680,
      "componentType": 5126,
      "count": 990,
      "type": "VEC2"
    },
    {
      "bufferView": 0,
      "byteOffset": 18024,
      "componentType": 5125,
      "count": 2880,
      "type": "SCALAR"
    }
  ],
  "asset": {
    "generator": "fab-model-conversion",
    "version": "2.0"
  },
  "bufferViews": [
    {
      "buffer": 0,
      "byteLength": 29544,
      "target": 34963
    },
    {
      "buffer": 0,
      "byteLength": 18600,
      "byteOffset": 29544,
      "byteStride": 8,
      "target": 34962
    },
    {
      "buffer": 0,
      "byteLength": 55800,
      "byteOffset": 48144,
      "byteStride": 12,
      "target": 34962
    },
    {
      "buffer": 0,
      "byteLength": 37200,
      "byteOffset": 103944,
      "byteStride": 16,
      "target": 34962
    }
  ],
  "buffers": [
    {
      "byteLength": 141144,
      "uri": "scene.bin"
    }
  ],
  "images": [
    {
      "uri": "textures/Scene_-_Root_baseColor.png"
    },
    {
      "uri": "textures/Scene_-_Root_metallicRoughness.png"
    },
    {
      "uri": "textures/Scene_-_Root_normal.jpeg"
    }
  ],
  "materials": [
    {
      "alphaMode": "BLEND",
      "doubleSided": true,
      "name": "Scene_-_Root",
      "normalTexture": {
        "index": 2
      },
      "pbrMetallicRoughness": {
        "baseColorTexture": {
          "index": 0
        },
        "metallicRoughnessTexture": {
          "index": 1
        }
      }
    }
  ],
  "meshes": [
    {
      "name": "Cylinder__0",
      "primitives": [
        {
          "attributes": {
            "NORMAL": 1,
            "POSITION": 0,
            "TANGENT": 2,
            "TEXCOORD_0": 3
          },
          "indices": 4,
          "material": 0,
          "mode": 4
        }
      ]
    },
    {
      "name": "Cylinder.001__0",
      "primitives": [
        {
          "attributes": {
            "NORMAL": 6,
            "POSITION": 5,
            "TANGENT": 7,
            "TEXCOORD_0": 8
          },
          "indices": 9,
          "material": 0,
          "mode": 4
        }
      ]
    }
  ],
  "nodes": [
    {
      "children": [
        1
      ],
      "matrix": [
        1.0,
        0.0,
        0.0,
        0.0,
        0.0,
        2.220446049250313e-16,
        -1.0,
        0.0,
        0.0,
        1.0,
        2.220446049250313e-16,
        0.0,
        0.0,
        0.0,
        0.0,
        1.0
      ],
      "name": "Sketchfab_model"
    },
    {
      "children": [
        2
      ],
      "matrix": [
        0.009999999776482582,
        0.0,
        0.0,
        0.0,
        0.0,
        0.0,
        0.009999999776482582,
        0.0,
        0.0,
        -0.009999999776482582,
        0.0,
        0.0,
        0.0,
        0.0,
        0.0,
        1.0
      ],
      "name": "cf85b82ee1e645348d44e18446095b57.fbx"
    },
    {
      "children": [
        3,
        5
      ],
      "name": "RootNode"
    },
    {
      "children": [
        4
      ],
      "matrix": [
        62.153732274001285,
        -37.96326586850445,
        -68.52520710664811,
        0.0,
        -58.47950191967099,
        35.719068636181504,
        -72.8305979035663,
        0.0,
        91.64497067754998,
        150.0417885285077,
        9.667354696178964e-06,
        0.0,
        -6.447271347045898,
        1.813244104385376,
        0.0,
        1.0
      ],
      "name": "Cylinder"
    },
    {
      "mesh": 0,
      "name": "Cylinder__0"
    },
    {
      "children": [
        6
      ],
      "matrix": [
        62.153732274001285,
        -37.96326586850445,
        -68.52520710664811,
        0.0,
        -58.47950191967099,
        35.719068636181504,
        -72.8305979035663,
        0.0,
        91.64497067754998,
        150.0417885285077,
        9.667354696178964e-06,
        0.0,
        6.447271347045898,
        22.924274444580078,
        0.0,
        1.0
      ],
      "name": "Cylinder.001"
    },
    {
      "mesh": 1,
      "name": "Cylinder.001__0"
    }
  ],
  "samplers": [
    {
      "magFilter": 9729,
      "minFilter": 9987,
      "wrapS": 10497,
      "wrapT": 10497
    }
  ],
  "scene": 0,
  "scenes": [
    {
      "name": "Sketchfab_Scene",
      "nodes": [
        0
      ]
    }
  ],
  "textures": [
    {
      "sampler": 0,
      "source": 0
    },
    {
      "sampler": 0,
      "source": 1
    },
    {
      "sampler": 0,
      "source": 2
    }
  ]
}
